<svg width="380" height="380" viewBox="0 0 380 380" fill="none" xmlns="http://www.w3.org/2000/svg">
<path d="M100 310V18.2702L87.89 10.1602C36.4 30.8302 0 81.1202 0 140V240C0 317.32 62.68 380 140 380H240C287.22 380 328.83 356.52 354.17 320.69V310H100Z" fill="#2962FF"/>
<path d="M240 0H140C121.55 0 103.99 3.66 87.86 10.14C54.53 42.5 30 95.28 30 140C30 207.71 39.36 247.35 67.12 286.07C69.28 289.08 70.69 292.6 70.88 296.29C71.31 304.64 69.59 319.94 54.54 333.71C52.92 335.19 53.95 337.9 56.14 337.99C65.56 338.4 84.57 337.85 104.11 329.22C109.68 326.76 116.02 327.19 121.4 330.05C154.53 347.64 193.33 350 230 350C276.76 350 323.39 339.6 354.17 320.84C370.38 297.99 380 270.14 380 240V140C380 62.68 317.32 0 240 0Z" fill="#EEEEEE"/>
<path d="M317.5 220C296.83 220 280 203.17 280 182.5C280 161.83 296.83 145 317.5 145C338.17 145 355 161.83 355 182.5C355 203.17 338.17 220 317.5 220ZM317.5 160C305.1 160 295 170.1 295 182.5C295 194.9 305.1 205 317.5 205C329.9 205 340 194.9 340 182.5C340 170.1 329.9 160 317.5 160Z" fill="#2962FF"/>
<path d="M265 220H255C252.24 220 250 217.76 250 215V130H265V220Z" fill="#2962FF"/>
<path d="M220 147.5V152.69C213.71 147.93 205.97 145 197.5 145C176.83 145 160 161.83 160 182.5C160 203.17 176.83 220 197.5 220C205.97 220 213.71 217.07 220 212.31V215C220 217.76 222.24 220 225 220H235V147.5H220ZM197.5 205C185.1 205 175 194.9 175 182.5C175 170.1 185.1 160 197.5 160C209.9 160 220 170.1 220 182.5C220 194.9 209.9 205 197.5 205Z" fill="#2962FF"/>
<path d="M162.5 130H82.5V145H135.71L80 210H80.26C78.63 212.11 77.5 214.63 77.5 217.5V220H152.5C155.26 220 157.5 217.76 157.5 215V205H104.29L160 140H159.74C161.37 137.89 162.5 135.37 162.5 132.5V130Z" fill="#2962FF"/>
</svg>
